<?xml version="1.0" encoding="UTF-8" standalone="no"?>
<svg
   id="Capa_1"
   data-name="Capa 1"
   viewBox="0 0 40 40"
   version="1.1"
   sodipodi:docname="adventure-helmets.svg"
   inkscape:version="1.3.2 (091e20e, 2023-11-25)"
   xmlns:inkscape="http://www.inkscape.org/namespaces/inkscape"
   xmlns:sodipodi="http://sodipodi.sourceforge.net/DTD/sodipodi-0.dtd"
   xmlns="http://www.w3.org/2000/svg"
   xmlns:svg="http://www.w3.org/2000/svg">
  <sodipodi:namedview
     id="namedview8"
     pagecolor="#ffffff"
     bordercolor="#000000"
     borderopacity="0.25"
     inkscape:showpageshadow="2"
     inkscape:pageopacity="0.0"
     inkscape:pagecheckerboard="0"
     inkscape:deskcolor="#d1d1d1"
     inkscape:zoom="9.3366894"
     inkscape:cx="19.760752"
     inkscape:cy="22.170599"
     inkscape:window-width="1424"
     inkscape:window-height="773"
     inkscape:window-x="7"
     inkscape:window-y="33"
     inkscape:window-maximized="0"
     inkscape:current-layer="Capa_1" />
  <defs
     id="defs1">
    <style
       id="style1">.cls-1{fill:#a72c2c;}.cls-2,.cls-3{fill:none;stroke-linecap:round;}.cls-2{stroke:#a72c2c;stroke-miterlimit:10;}.cls-3{stroke:#363636;stroke-linejoin:round;}</style>
  </defs>
  <title
     id="title1">21-moto-equipacion-motocross-cascos</title>
  <path
     class="cls-1"
     d="m 25.61,31 c -0.335329,-0.02183 -1.865344,-0.253975 -1.766623,0.06724 0.02762,0.129517 1.388717,0.792472 1.506623,0.852765 v 0 c 0.23731,0.134012 0.538367,0.04864 0.67,-0.19 0.04445,-0.119329 0.04445,-0.250671 0,-0.37 -0.03445,-0.126245 -0.117029,-0.233951 -0.23,-0.3 -0.05492,-0.03285 -0.11635,-0.05333 -0.18,-0.06 z"
     id="path1"
     sodipodi:nodetypes="ccsscccc" />
  <line
     class="cls-2"
     x1="27.32"
     y1="32.41"
     x2="28.84"
     y2="33.26"
     id="line1" />
  <path
     class="cls-1"
     d="M9,4.56a.47.47,0,0,0-.5.13A.5.5,0,0,0,8.35,5a.45.45,0,0,0,.15.34v0a.49.49,0,0,0,.7,0A.5.5,0,0,0,9.35,5a.49.49,0,0,0-.15-.35A.45.45,0,0,0,9,4.56Z"
     id="path2" />
  <path
     class="cls-3"
     d="M27.94,12S19,13,17.82,13.3s-1.77-.15-3.42-1.6S11.62,9.25,12,9a12.58,12.58,0,0,1,5-1.13c1.75.11,3.79,1.86,8.19,2,1.92.06,3.65.05,5,0"
     id="path3" />
  <path
     class="cls-3"
     d="M18.3,4.39s1.22,1.93,2,2.13,3.47.31,4.27.73a5.76,5.76,0,0,1,.89.62"
     id="path4" />
  <path
     class="cls-3"
     d="M16,4.18a23.09,23.09,0,0,0-4.9.28"
     id="path5" />
  <path
     class="cls-3"
     d="M27.94,12s9.43-1,9.92-1.33,1.47-1.42,1-1.59S35.34,9.18,32.1,8s-4-2.28-5.54-2.42A16.29,16.29,0,0,1,21,4.39c-2-.88-2.74,0-2.74,0"
     id="path6" />
  <path
     class="cls-3"
     d="M 28.700252,26.946392 C 28.143984,27.287017 27.595965,26.455784 26.641638,25.884708 25.820495,25.409987 25.388007,25.128619 24.53,25.12 22.24,25.06 18.1,23.53 17.17,21.19 c -0.93,-2.34 -0.4,-4.5 1.29,-5.08 1.308355,-0.449021 7.831529,-1.185977 10.497285,-1.585334 1.111124,-0.166458 3.21261,9.55703 2.710493,11.528714"
     id="path7"
     sodipodi:nodetypes="cccsssc" />
  <path
     class="cls-3"
     d="M 6.7,5.66 6.08,5.92 c -1,0.39 -2.55,1 -2.56,1.21 0.2020225,1.3429246 0.07856,2.7147279 -0.36,4 -0.74,1.75 -1,2.83 -1.22,3.36 -0.22,0.53 -0.81,0.92 -0.79,1.17 0.02,0.25 1.14,5.34 0.85,6.08 -0.29,0.74 -0.87,2.11 -1,2.4 -0.0747973,0.26482 -0.0747973,0.54518 0,0.81 2.8235852,0.45301 5.5897433,1.210769 8.25,2.26 4.07,1.66 7,3.2 10.61,4.19 3.61,0.99 8.2,4.09 8.81,4.51 0.61,0.42 1.66,-0.84 1.9,-1.23 0.618142,-1.932098 1.122342,-3.898814 1.51,-5.89 -0.186914,-1.103534 -0.319105,-1.479809 -1.37874,-1.506048 l -0.867606,0.227102"
     id="path8"
     sodipodi:nodetypes="ccccssscccsscccc" />
</svg>
