<?xml version="1.0" encoding="utf-8" ?>
<svg xmlns="http://www.w3.org/2000/svg" xmlns:xlink="http://www.w3.org/1999/xlink" width="1024" height="1024">
	<path fill="#FEFEFE" d="M0 0L1024 0L1024 1024L0 1024L0 0Z"/>
	<path fill="#656465" d="M404.968 41.5352C414.484 41.0397 426.136 43.7235 435.725 44.9944L508.449 55.0079L669.586 76.342C715.544 82.0334 761.447 88.1618 807.289 94.7262C842.581 100.066 878.052 104.432 913.417 109.274C923.68 110.662 933.93 112.146 944.165 113.726C949.082 114.441 954.218 114.586 959.054 115.701C960.857 116.117 962.183 116.583 963.592 117.788C964.345 119.199 964.464 120.396 964.168 121.945C963.601 124.914 961.765 127.716 960.635 130.509C957.952 137.14 955.344 143.762 952.49 150.325L906.24 258.988C902.171 268.755 894.101 283.159 892.146 292.994C890.479 301.382 891.495 321.527 891.48 331.401L891.479 420.363L891.099 733.857C886.434 741.088 868.833 756.18 861.694 762.925C850.411 773.585 839.406 784.629 828.303 795.483L717.992 903.482C694.214 927.032 670.276 950.421 646.181 973.647C644.108 975.619 642.198 977.441 639.63 978.761C629.4 977.7 618.664 973.286 608.757 970.414L557.937 955.916C522.266 945.98 486.709 935.635 451.274 924.885C396.186 908.725 341.01 892.868 285.748 877.314L168.107 845.054L130.434 834.862C124.027 833.102 116.185 831.761 110.363 828.507C109.393 827.036 109.009 825.852 108.927 824.076C108.717 819.547 109.066 814.865 109.086 810.316L109.034 782.872L109.234 686.059L109.346 453.115L109.416 381.095C109.402 367.676 109.834 354.016 108.957 340.632C108.075 327.192 101.082 309.388 97.1487 296.093L73.5629 214.398C71.2977 206.651 68.9582 198.925 66.5447 191.223C65.2911 187.224 63.7207 183.165 62.8116 179.076C62.5539 177.917 61.8814 174.9 62.6761 173.926C63.9226 172.399 66.5502 171.31 68.3368 170.499C87.0737 161.993 106.013 154.02 124.856 145.768L219.961 103.715L295.84 69.8878C304.326 66.0709 336.25 49.9321 343.219 49.3491C345.083 50.4322 346.304 52.3264 347.389 54.1543C351.634 61.3041 354.924 69.3668 358.729 76.7952C368.866 96.5331 378.745 116.403 388.363 136.399C386.889 123.881 385.599 112.032 385.982 99.3918C386.494 82.4814 392.242 53.54 404.968 41.5352Z"/>
	<path fill="#FEFEFE" d="M118.313 336.704C125.016 337.589 131.806 339.271 138.453 340.584C153.473 343.506 168.464 346.577 183.423 349.798L311.96 376.399L527.629 420.757C563.569 428.259 599.68 435.267 635.421 443.656L635.318 802.279C635.665 856.691 635.477 911.105 634.753 965.513L634.118 965.939C615.589 960.306 596.923 955.31 578.303 950.006L474.35 919.944C397.505 896.877 320.352 874.848 242.912 853.862C208.182 843.802 173.324 834.183 138.349 825.008C131.613 823.223 124.984 821.093 118.222 819.394L118.454 487.544C118.25 452.613 118.225 417.681 118.378 382.75C118.387 367.519 117.147 351.886 118.313 336.704Z"/>
	<path fill="#656465" d="M328.37 420.214C412.848 414.408 501.082 463.019 538.969 539.119C544.991 551.213 549.106 563.756 552.951 576.671C553.611 578.887 554.075 582.643 555.809 584.01C557.118 584.042 558.544 583.864 559.639 584.679C561.863 591.907 562.357 600.02 563.405 607.515C564.865 617.61 566.385 627.696 567.965 637.773L579.772 714.788C581.631 726.507 586.532 749.36 586.047 760.152C585.775 766.203 581.011 770.775 578.602 776.105C578.516 776.295 578.435 776.486 578.352 776.677C579.769 780.831 580.989 784.813 581.063 789.246C581.434 811.305 563.004 837.185 550.884 854.979C548.392 858.637 545.023 861.705 542.887 865.591C540.015 870.814 540.831 877.577 538.517 883.171C536.71 887.537 533.425 890.374 529.097 892.14C504.131 902.327 461.508 883.615 437.837 873.602C427.819 869.007 417.517 864.963 407.384 860.624C391.195 853.553 375.066 846.348 358.997 839.01C319.603 820.649 280.786 800.031 242.841 778.86C223.889 768.286 197.177 754.212 181.115 739.892C178.1 729.458 174.194 719.379 170.913 709.037C163.286 684.998 156.922 659.613 155.277 634.386C151.603 578.064 165.233 524.655 203.111 481.592C234.96 445.183 280.082 423.073 328.37 420.214Z"/>
	<path fill="#FEFEFE" d="M296.186 461.543C297.333 461.488 298.464 461.515 299.61 461.555C347.344 463.226 399.522 480.03 435.477 512.276C446.653 522.299 455.1 534.031 465.32 544.835C473.643 553.634 484.146 558.301 496.317 558.504C507.676 558.692 515.98 554.639 524.019 546.854C530.454 557.836 535.164 571.098 537.643 583.488C489.242 583.815 440.845 584.585 392.459 585.798L356.039 586.708C351.02 586.86 341.257 588.036 336.672 586.968C327.911 584.926 320.214 573.973 312.88 568.864C302.336 561.519 288.629 557.854 275.884 560.24C264.066 562.452 253.178 569.817 246.428 579.715C238.056 591.992 236.14 606.262 238.91 620.655C245.051 652.563 270.497 685.304 297.098 703.118C327.874 723.727 366.895 739.783 401.3 753.343C428.987 764.256 456.406 773.976 485.247 781.422C496.357 784.29 507.578 787.202 518.991 788.545C530.223 789.867 542.225 790.298 553.427 788.492C556.657 787.971 559.808 786.969 563.023 786.329L563.332 787.107C561.461 789.849 554.225 790.816 551.017 791.187C539.571 792.501 528.007 792.391 516.588 790.86C500.515 788.785 484.555 784.525 468.738 781.009C463.682 779.885 458.395 778.197 453.289 777.523C451.567 777.296 449.438 777.208 447.899 778.154C446.567 778.972 445.86 780.53 445.664 782.028C443.994 794.793 466.596 825.867 475.039 836.36C478.414 840.554 482.85 845.637 488.587 846.053C490.242 846.173 492.024 845.949 493.241 844.693C494.311 843.588 494.7 841.916 494.804 840.429C495.7 827.598 486.956 810.301 479.378 800.529C474.584 794.348 468.701 788.829 463.452 783.009C475.073 785.615 486.808 788.388 498.208 791.842C504.155 808.147 511.253 825.502 521.315 839.724C522.945 842.027 524.993 844.606 528.029 844.879C531.241 845.167 533.4 842.801 535.644 840.883C542.982 834.602 548.62 826.232 553.851 818.187C556.067 814.779 558.094 810.98 560.896 808.032L561.43 808.099L561.198 807.857C561.439 808.93 560.946 809.781 560.482 810.75C554.943 822.312 540.72 846.109 531.956 854.646C529.524 857.043 526.598 858.88 523.383 860.03C519.901 861.239 516.127 860.994 512.553 860.329C506.406 859.187 500.675 856.778 494.804 854.734C471.833 846.738 446.965 836.396 425.303 825.278C407.207 815.991 390.308 803.479 373.319 792.303C353.629 779.35 333.691 766.917 314.751 752.84C308.581 748.254 302.087 743.629 296.437 738.407C287.24 729.907 280.584 719.093 271.427 710.429C259.866 699.489 247.425 689.028 236.566 677.415C229.845 670.227 223.731 662.147 217.919 654.221C199.43 629.005 186.191 603.339 176.544 573.546C176.615 573.17 176.69 572.795 176.771 572.421C181.659 549.718 204.55 501.189 224.238 488.503C255.013 468.671 297.449 467.914 330.408 482.839C343.214 488.638 359.234 500.138 369.751 509.492C372.882 512.277 388.117 529.285 390.718 529.837C392.578 527.465 393.606 522.421 394.608 519.47C396.386 521.791 401.867 526.504 402.462 529C400.615 528.772 396.874 523.568 395.491 521.963C394.268 525.415 393.463 528.803 392.76 532.395C392.393 532.182 392.024 531.973 391.651 531.771C385.023 528.21 358.58 516.981 351.258 520.245C349.895 520.852 349.862 521.107 349.442 522.428C350.437 525.818 355.881 527.832 358.777 529.673C364.659 533.413 370.546 538.312 374.84 543.836C377.263 546.952 379.375 550.884 382.502 553.304C388.455 557.911 395.871 559.62 401.839 565.029C407.514 570.174 410.517 577.877 415.96 582.943C417.031 583.94 417.948 584.067 419.347 583.963L418.958 583.024L419.795 582.588L419.109 582.514C417.814 576.41 415.506 570.318 413.706 564.331C419.042 572.405 424.409 580.484 434.15 583.289C436.219 573.793 439.806 568.656 446.22 561.532C441.454 557.997 436.49 554.856 431.864 551.11C422.881 543.836 414.891 535.179 407.094 526.677C403.724 523.002 398.252 514.29 393.517 513.072C390.802 514.465 389.486 519.393 388.37 522.123C383.571 517.021 379.062 511.655 373.94 506.864C349.734 484.221 325.167 475.888 296.186 461.543Z"/>
	<path fill="#FEFEFE" d="M283.64 568.2C286.148 568.166 288.789 568.34 291.27 568.7C304.072 570.558 316.559 578.685 324.271 588.917C313.339 582.846 308.996 576.186 295.265 573.281C285.442 571.203 274.872 572.843 266.439 578.396C258.523 583.611 253.034 591.786 251.202 601.086C246.209 625.831 267.947 656.378 281.091 676.261C274.144 654.885 255.737 631.906 255.454 609.489C255.346 600.971 258.051 592.524 264.138 586.429C276.778 573.77 295.476 575.88 309.591 584.759C314.903 588.101 319.509 593.437 325.802 594.885C333.997 596.771 355.531 595.284 364.854 595.092L460.612 592.657C474.987 592.343 489.42 592.012 503.797 592.127C517.965 592.241 532.136 592.778 546.305 592.675C546.986 595.787 547.372 598.831 547.681 601.999C546.102 601.413 544.494 600.912 542.862 600.498C527.339 596.634 498.867 599.917 482.179 601.182C446.613 603.879 410.491 606.456 375.52 613.839C363.131 616.455 348.949 619.818 338.102 626.418C336.063 628 334.623 629.367 334.137 632.002C332.289 641.994 342.616 707.957 347.849 715.159C358.919 730.391 453.979 755.107 475.65 758.433C500.519 762.249 546.862 764.654 567.814 749.241C567.912 752.133 568.233 755.049 568.462 757.936C560.446 765.268 546.089 768.298 535.634 769.489C525.068 770.694 514.295 770.087 503.731 769.128C466.514 765.752 431.713 754.852 397.049 741.383C375.633 733.062 354.866 724.008 334.449 713.455C319.994 705.983 305.281 698.569 292.515 688.356C269.647 670.061 248.894 642.733 245.742 612.844C244.641 602.406 247.032 591.474 253.778 583.237C261.279 574.079 272.041 569.274 283.64 568.2Z"/>
	<path fill="#656465" d="M280.379 588.574C285.28 588.165 289.9 588.407 294.381 590.681C300.028 593.547 304.079 598.884 305.921 604.887C307.764 610.893 307.347 617.643 304.371 623.222C301.49 628.622 296.982 631.78 291.222 633.481C286.377 633.982 281.608 633.557 277.143 631.472C271.405 628.792 267.21 623.874 265.27 617.868C263.334 611.877 263.471 604.836 266.473 599.214C269.533 593.482 274.419 590.531 280.379 588.574Z"/>
	<path fill="#FEFEFE" d="M281.8 593.565C285.473 593.351 288.608 593.411 291.973 595.087C296.395 597.29 299.631 601.377 301.088 606.071C302.579 610.875 302.227 616.556 299.725 620.97C297.308 625.233 293.866 626.998 289.367 628.314C285.747 628.596 282.602 628.609 279.236 627.054C274.788 624.999 271.484 621.045 269.935 616.424C268.394 611.823 268.662 606.554 270.859 602.207C273.242 597.488 276.976 595.19 281.8 593.565Z"/>
	<path fill="#656465" d="M283.369 595.546C286.547 595.427 289.365 595.88 292.126 597.55C295.923 599.847 298.507 603.676 299.498 607.977C300.453 612.125 300.014 616.769 297.636 620.379C295.19 624.091 291.87 625.453 287.693 626.43C284.927 626.513 282.295 626.157 279.789 624.915C275.845 622.961 272.989 619.341 271.653 615.185C270.34 611.103 270.586 606.629 272.745 602.88C275.173 598.664 278.889 596.828 283.369 595.546Z"/>
	<path fill="#FEFEFE" d="M283.726 599.542C285.404 599.649 287.029 599.749 288.585 600.446C291.719 601.85 294.153 604.462 295.334 607.687C296.377 610.579 296.333 613.767 295.005 616.561C293.442 619.849 290.916 621.455 287.559 622.539C286.016 622.471 284.473 622.448 283.011 621.892C279.817 620.646 277.265 618.16 275.935 615.001C274.674 611.99 274.614 608.479 276.039 605.512C277.647 602.164 280.31 600.626 283.726 599.542Z"/>
	<path fill="#656465" d="M308.744 643.168C312.716 643.03 316.644 644.036 320.061 646.064C324.533 648.72 327.74 653.071 328.953 658.128C330.122 662.94 329.332 668.02 326.757 672.25C323.778 677.058 319.391 679.175 314.086 680.409C309.114 680.691 304.87 679.998 300.721 676.987C296.429 673.858 293.633 669.084 293.004 663.81C292.366 658.639 293.654 652.811 297.018 648.746C300.242 644.85 303.95 643.736 308.744 643.168Z"/>
	<path fill="#FEFEFE" d="M307.665 648.062C310.368 647.922 312.879 647.934 315.446 648.907C319.412 650.409 322.565 653.506 324.137 657.444C325.508 660.942 325.531 665.063 323.972 668.506C322.213 672.391 319.429 674.292 315.565 675.771C312.658 676.083 309.926 675.919 307.182 674.822C303.478 673.348 300.52 670.449 298.971 666.776C297.493 663.257 297.391 659.146 298.902 655.618C300.646 651.549 303.713 649.612 307.665 648.062Z"/>
	<path fill="#656465" d="M309.176 649.588C311.207 649.562 313.107 649.722 315.018 650.481C318.59 651.901 321.313 654.885 322.635 658.468C323.796 661.616 323.775 665.21 322.281 668.243C320.586 671.684 317.821 673.286 314.307 674.477C311.977 674.501 309.816 674.373 307.653 673.414C304.233 671.898 301.651 668.838 300.514 665.3C299.46 662.02 299.621 658.228 301.315 655.188C303.122 651.944 305.747 650.61 309.176 649.588Z"/>
	<path fill="#FEFEFE" d="M306.977 652.061C308.626 651.942 310.388 651.769 312.027 652.025C315.205 652.522 318.395 654.545 320.157 657.238C321.576 659.406 322.176 662.174 321.467 664.697C320.535 668.02 318.524 669.791 315.6 671.39C314.096 671.584 312.53 671.855 311.013 671.707C308.063 671.394 305.374 669.878 303.58 667.515C301.813 665.201 301.124 662.239 301.688 659.383C302.375 655.993 304.235 653.998 306.977 652.061Z"/>
	<path fill="#FEFEFE" d="M338.787 437.716C351.261 437.05 363.98 438.348 376.242 440.608C387.394 442.664 398.606 445.219 409.35 448.882C439.444 459.142 469.737 477.916 491.589 501.036C499.751 509.672 506.697 519.271 513.419 529.043C494.732 538.569 474.737 533.089 455.906 526.992C442.026 509.894 425.665 496.931 406.816 485.741C375.37 467.958 338.31 458.167 302.255 456.454C296.743 456.192 290.828 455.466 285.338 456.009C284.558 457.096 284.082 457.489 284.002 458.846C286.939 460.675 290.529 461.819 293.727 463.154C298.834 465.287 303.855 467.543 308.661 470.3C291.201 465.366 268.477 466.233 251.106 471.054C244.435 472.906 238.149 475.68 231.799 478.395C238.37 472.114 245.822 467.227 253.519 462.461C281.614 445.063 306.298 439.386 338.787 437.716Z"/>
	<path fill="#FEFEFE" d="M516.381 604.289C524.197 603.65 539.356 602.699 545.945 607.798C547.57 609.055 547.918 611.494 548.366 613.431C550.321 621.873 551.349 630.701 552.828 639.246C555.988 656.748 558.955 674.285 561.729 691.853C564.234 707.52 567.963 722.905 569.761 738.7L565.231 735.591C563.231 727.859 562.352 719.54 560.886 711.655C556.701 688.999 552.806 666.291 549.2 643.535C547.324 632.134 546.177 619.723 542.653 608.728C521.713 606.773 500.747 608.717 479.833 610.338C455.156 612.252 430.381 614.515 405.938 618.453C396.781 619.929 350.3 627.37 345.695 633.741C344.247 639.403 346.406 647.567 347.557 653.319C350.196 666.503 356.797 694.853 365.224 705.547C366.605 707.299 368.418 708.667 370.272 709.883C375.894 713.573 382.444 716.438 388.452 719.48C424.615 737.79 463.718 749.628 504.345 751.781C512.749 752.226 521.869 752.746 530.115 750.872C532.008 750.442 534.658 749.666 535.683 747.841C541.917 736.737 500.573 705.355 493.727 699.124C489.708 695.467 485.543 691.196 482.463 686.72C480.987 684.574 480.09 681.797 479.51 679.282C477.085 668.781 479.457 647.271 485.467 638.14C487.259 635.418 490.363 632.099 493.767 631.605C496.667 631.184 498.87 631.754 501.109 633.572C501.239 633.678 501.366 633.787 501.495 633.894C502.07 634.546 502.615 635.223 503.129 635.925C511.894 647.741 508.331 678.075 517.691 695.297C527.03 712.478 551.743 724.405 560.336 741.518C561.169 743.177 562.015 745.322 561.225 747.143C559.923 750.142 550.656 752.186 547.434 753.14C548.496 731.975 530.947 717.956 515.912 705.764C511.161 701.912 505.184 697.721 502.853 691.848C502.033 689.781 501.533 687.542 501.191 685.349C499.98 677.586 499.819 669.598 498.926 661.781C498.113 654.664 496.076 647.214 496.327 640.057C496.446 636.661 497.565 633.983 498.844 630.907C497.351 632.617 495.776 634.35 494.727 636.38C490.976 643.641 493.42 653.807 494.265 661.576C495.398 672.007 495.646 686.159 499.814 695.741C501.953 700.657 507.817 704.581 511.832 707.98C523.113 717.531 538.628 730.185 543.106 744.7C543.843 747.089 544.211 749.752 542.718 751.949C540.925 754.589 537.476 755.037 534.547 755.389C487.783 761.011 442.266 745.878 398.288 732.186C387.483 728.823 362.682 721.294 354.546 714.403C352.818 712.939 351.811 710.893 351.028 708.809C348.125 701.089 347.112 692.07 345.726 683.942C343.233 669.313 340.552 654.426 339.711 639.595C339.557 636.885 339.307 633.923 341.292 631.797C347.428 625.225 360.839 623.158 369.317 621.199C417.565 610.053 467.096 607.219 516.381 604.289Z"/>
	<path fill="#FEFEFE" d="M171.069 614.746C173.739 616.743 193.638 648.242 198.154 654.226C213.722 674.857 229.975 694.454 249.001 712.012C258.991 721.231 270.546 730.705 282.084 737.875C285.694 740.119 289.982 741.194 293.491 743.567C298.101 746.685 302.471 750.409 306.901 753.796C314.792 759.872 322.885 765.681 331.167 771.214L368.126 794.96C375.184 799.423 382.826 803.583 389.39 808.744L389.985 809.217C380.104 806.567 370.153 801.109 360.873 796.787C329.649 782.564 298.797 767.539 268.348 751.726C246.857 740.746 225.49 730.033 205.184 716.944C200.189 713.723 194.492 710.647 190.219 706.483C188.818 705.117 187.407 703.714 187.367 701.703C187.48 701.619 187.584 701.519 187.708 701.451C193.804 698.156 213.064 710.253 219.256 712.558L220.067 712.854C206.8 702.777 194.186 691.834 180.811 681.903C174.732 660.202 172.008 637.217 171.069 614.746Z"/>
	<path fill="#FEFEFE" d="M191.362 714.703C197.825 717.695 206.039 724.203 212.463 728.214C222.239 734.316 232.463 739.709 242.639 745.104C298.182 773.901 354.592 800.992 411.792 826.338C431.842 835.531 452.088 844.286 472.519 852.597C482.231 856.523 492.068 860.681 502.096 863.706C509.779 866.083 517.766 867.342 525.808 867.442L521.503 871.788C518.849 874.172 515.847 875.291 512.302 875.469C474.784 877.345 309.096 794.251 267.093 771.747C252.241 763.789 237.743 755.07 223.313 746.376C213.859 740.681 202.371 734.896 194.319 727.342C193.497 723.055 192.612 718.889 191.362 714.703Z"/>
	<path fill="#FEFEFE" d="M173.679 583.838C175.563 585.593 186.352 613.199 189.16 618.714C199.827 639.671 218.312 666.044 234.429 683.127C241.875 691.019 277.947 722.359 280.111 729.308L279.255 728.835C269.216 720.836 258.77 713.245 249.333 704.529C226.881 683.791 207.351 658.758 190.234 633.489C183.524 623.583 177.4 613.304 170.704 603.392C171.429 596.823 172.213 590.289 173.679 583.838Z"/>
	<path fill="#FEFEFE" d="M566.521 791.596C566.983 792.349 567.091 792.381 567.14 793.335C567.349 797.41 564.423 803.844 561.683 806.751L560.974 805.673C557.597 804 546.215 808.871 541.519 808.834C531.171 808.752 523.318 807.099 513.366 806.092L512.606 806.744C512.472 807.412 512.439 807.416 512.465 808.203C512.666 814.16 525.908 833.009 530.135 837.356C534.833 834.612 538.118 830.489 542.03 826.822C542.074 828.07 539.64 830.3 538.766 831.334C537.334 832.865 536.023 834.514 534.594 836.051C532.868 837.906 531.101 839.586 528.442 839.668C522.438 836.999 504.868 799.356 501.923 792.584C526.457 797.184 542.287 799.018 566.521 791.596Z"/>
	<path fill="#FEFEFE" d="M395.936 526.726C405.597 534.829 414.717 543.69 424.333 551.889C426.952 554.122 436.22 560.614 437.539 562.479C437.789 562.834 437.981 563.592 438.078 564.026C436.429 563.528 434.847 562.74 433.268 562.053C430.096 560.105 425.652 556.703 421.843 556.451L421.379 556.925C421.712 558.68 423.083 560.233 424.252 561.54C424.555 567.388 425.196 571.037 428.679 575.932C421.957 571.099 418.104 564.739 412.303 559.14C406.622 553.658 393.386 551.124 385.607 550.212C382.526 545.363 379.487 540.414 375.613 536.145C379.877 536.081 384.193 537.012 388.379 536.747C385.616 534.013 379.69 533.563 375.972 533.421L371.739 528.555C377.982 530.927 385.913 533.07 391.248 537.168L391.465 537.915C389.65 538.245 387.892 537.995 386.07 537.827C388.477 538.907 394.847 541.126 397.386 540.261C397.525 540.214 397.648 540.129 397.779 540.064C398.041 538.694 397.714 537.96 396.953 536.756C396.582 536.17 396.047 535.642 395.58 535.137L395.936 526.726Z"/>
	<path fill="#FEFEFE" d="M451.995 780.3C454.295 780.465 456.171 780.928 458.03 782.35C468.271 790.181 489.325 821.251 490.583 834.314C490.801 836.583 490.728 838.729 489.273 840.555C487.916 839.949 486.5 839.354 485.214 838.609C475.197 832.806 452.989 795.845 449.733 784.116L451.995 780.3Z"/>
	<path fill="#656465" d="M451.182 781.777C453.4 781.859 454.549 782.687 456.218 784.115C467.75 793.977 487.411 822.572 488.448 836.917C487.36 836.909 486.602 836.795 485.697 836.174C478.027 830.911 453.017 790.675 451.182 781.777Z"/>
	<path fill="#FEFEFE" d="M515.3 533.94L516.152 534.181C518.147 536.767 519.593 539.731 521.147 542.596C515.895 547.431 510.437 551.573 503.256 552.955C492.566 555.012 482.599 551.788 473.768 545.88C469.66 542.674 466.323 538.89 462.956 534.934C481.372 539.871 497.434 542.235 515.3 533.94Z"/>
	<path fill="#FEFEFE" d="M564.865 769.237C566.008 769.157 566.246 768.926 567.234 769.584C567.328 771.114 566.151 772.555 565.397 773.831C564.849 774.193 564.288 774.536 563.717 774.861C541.466 787.42 509.429 780.519 486.123 774.241C484.185 773.645 482.307 773.146 480.566 772.076C482.698 770.963 503.525 774.219 507.711 774.566C519.314 775.53 531.005 775.449 542.479 773.278C549.944 771.865 557.243 769.635 564.865 769.237Z"/>
	<path fill="#FEFEFE" d="M523.959 612.756C524.109 612.859 524.275 612.944 524.41 613.066C524.429 613.083 525.198 613.944 525.226 614.005C527.079 618.088 529.019 634.521 529.881 639.732C533.952 664.337 538.382 689.04 541.637 713.758L541.069 714.403C539.561 712.969 538.308 711.366 537.008 709.747C536.536 697.398 521.556 616.864 522.689 613.988C522.844 613.595 523.179 613.3 523.425 612.956L523.514 613.353L523.959 612.756Z"/>
	<path fill="#FEFEFE" d="M427.533 562.758L427.41 562.306L427.742 561.83C429.877 562.39 431.125 562.68 433.268 562.053C434.847 562.74 436.429 563.528 438.078 564.026C437.091 565.003 436.021 565.909 435.388 567.163C434.608 569.748 432.367 572.591 431.21 575.192C430.291 573.879 429.398 572.548 428.533 571.199C426.645 568.197 426.748 566.106 427.533 562.758Z"/>
	<path fill="#656465" d="M427.533 562.758L427.41 562.306L427.742 561.83C429.877 562.39 431.125 562.68 433.268 562.053C434.847 562.74 436.429 563.528 438.078 564.026C437.091 565.003 436.021 565.909 435.388 567.163C432.823 565.497 430.302 564.058 427.533 562.758Z"/>
	<path fill="#FEFEFE" d="M550.513 811.467C551.074 811.558 550.695 811.464 551.567 811.981C551.515 812.477 551.514 812.721 551.331 813.226C551.051 813.998 550.413 814.826 549.706 815.204C545.019 817.709 527.541 816.48 522.143 815.076C521.139 814.597 520.806 814.244 520.211 813.307C522.185 812.698 525.06 813.428 527.148 813.628C534.185 814.301 544.167 815.04 550.513 811.467Z"/>
	<path fill="#FEFEFE" d="M527.567 826.27C531.296 825.967 535.077 826.149 538.816 826.217C537.587 827.236 536.482 828.433 535.355 829.564C534.48 830.447 533.729 830.949 532.531 831.265C531.528 831.53 530.482 831.377 529.637 830.78C528.044 829.653 527.835 828.057 527.567 826.27Z"/>
	<path fill="#FEFEFE" d="M182.815 690.255C187.297 692.52 191.685 696.743 195.865 699.647C192.401 699.215 188.963 698.186 185.605 697.261C184.337 694.944 183.559 692.773 182.815 690.255Z"/>
	<path fill="#FEFEFE" d="M400.734 557.442C403.539 557.892 406.015 558.922 408.634 559.979C409.765 562.516 410.768 565.128 411.829 567.697C407.995 565.093 404.284 560.557 400.734 557.442Z"/>
	<path fill="#838282" d="M880.907 295.505C881.398 296.196 881.426 296.491 881.446 297.353C881.639 305.829 881.15 314.391 881.147 322.88L880.615 416.001L880.322 606.655L880.12 678.358C880.12 695.045 880.679 711.926 879.505 728.58C874.187 735.251 867.617 741.086 861.449 746.964C854.867 753.243 848.341 759.579 841.87 765.971C812.176 795.223 782.308 824.299 752.268 853.195L669.963 934.078C662.398 941.443 649.737 956.025 641.751 961.242C640.967 956.601 641.416 951.25 641.423 946.518L641.425 919.959L641.612 808.501L641.545 439.751C671.714 420.169 703.967 403.594 734.773 384.997L821.807 331.746C841.461 319.563 860.916 307.15 880.907 295.505Z"/>
	<path fill="#838282" d="M409.992 183.941C420.495 184.994 431.17 187.944 441.529 190.067C460.117 193.687 478.681 197.431 497.219 201.299L637.986 229.74C648.358 231.827 704.867 242.093 708.841 244.659C707.169 245.563 706.28 246.323 705.33 247.991C704.073 250.197 703.547 252.877 702.645 255.253C700.776 260.173 698.594 265.02 696.435 269.82C689.41 285.438 683.068 301.2 676.485 316.997C667.841 337.223 659.559 357.6 651.641 378.121L636.572 415.447C633.942 422.05 630.822 428.741 629.025 435.624C614.294 432.162 599.167 429.675 584.332 426.52L477.26 403.915L431.345 394.488C424.017 392.951 416.615 391.634 409.364 389.762C408.72 365.428 409.457 340.92 409.469 316.567C409.273 272.358 409.448 228.148 409.992 183.941Z"/>
	<path fill="#838282" d="M432.939 73.3824C466.424 78.5987 500.151 82.2843 533.74 86.7553L764.052 117.301L841.991 127.824C861.466 130.437 881.541 132.592 900.656 137.164C876.177 150.512 852.177 164.866 827.821 178.466C815.729 184.846 804.197 192.194 792.237 198.785L718.18 239.614C708.509 236.974 698.415 235.52 688.585 233.527L631.379 221.753L422.251 179.617C436.593 153.327 436.082 103.023 432.939 73.3824Z"/>
	<path fill="#838282" d="M338.771 62.9591L339.541 63.0819C341.46 65.1065 352.524 88.7081 354.868 93.3368C369.327 121.887 384.341 150.178 398.419 178.918C387.511 184.793 376.381 190.247 365.411 196.003L253.22 254.452L178.89 293.158C162.124 302.015 145.595 311.273 128.661 319.815C125.012 321.858 121.17 323.62 117.421 325.476L74.7357 180.08C83.5505 176.389 92.1559 172.237 100.913 168.416L185.86 130.925C236.973 108.591 287.944 85.9355 338.771 62.9591Z"/>
	<path fill="#838282" d="M402.62 184.895L403.488 185.162C404.021 186.498 403.649 371.179 403.276 388.236C393.467 387.012 383.602 384.736 373.915 382.736L330.375 373.75L174.392 341.556C157.797 337.655 141.092 333.689 124.24 331.065C133.622 324.866 144.256 319.879 154.193 314.583L219.226 280.569L317.303 229.485C345.661 214.506 373.716 198.807 402.62 184.895Z"/>
	<path fill="#FEFEFE" d="M945.086 134.002L945.511 134.736C943.311 143.696 936.615 156.242 932.934 165.112C921.213 193.355 908.675 221.271 896.721 249.418C891.387 261.977 885.071 274.55 881.089 287.604C844.071 309.797 807.358 332.677 770.69 355.445C761.246 361.309 752.003 367.483 742.493 373.243C721.753 385.689 700.921 397.98 679.999 410.116C669.41 416.342 658.638 422.401 648.322 429.062L647.862 428.646C651.408 417.469 656.753 406.799 661.424 396.057L682.14 347.598C689.077 331.381 696.127 315.163 702.78 298.829C707.789 286.533 712.374 273.847 718.149 261.898C731.903 253.295 746.498 245.905 760.63 237.933L845.82 190.498C853.42 186.348 860.791 181.803 868.332 177.551L945.086 134.002Z"/>
	<path fill="#FEFEFE" d="M409.387 53.0281C436.839 55.3689 464.139 59.8519 491.435 63.5795L633.705 82.7898L831.579 109.058L895.093 117.816C906.446 119.416 917.865 120.789 929.15 122.826C923.298 126.543 916.688 129.678 910.458 132.748C910.143 132.632 909.827 132.521 909.513 132.402C901.044 129.19 891.055 128.79 882.099 127.464C864.605 124.771 847.074 122.322 829.512 120.119C808.017 116.444 786.098 114.026 764.465 111.201L639.61 94.8353C585.326 87.3522 530.997 80.2003 476.626 73.3798C461.534 71.5641 444.672 68.0478 429.946 66.8602C428.165 66.7166 426.758 66.8052 425.37 68.0762C422.327 70.8619 421.138 77.522 420.037 81.3805C412.004 109.538 409.412 138.15 408.951 167.319C406.102 159.992 403.368 152.513 401.223 144.947C392.996 115.938 394.511 79.6567 409.387 53.0281Z"/>
	<path fill="#FEFEFE" d="M938.657 124.035C942.248 124.315 945.741 124.745 949.291 125.346C940.936 130.687 931.903 135.437 923.236 140.278L880.202 164.228L784.423 217.953C763.675 229.553 742.6 240.756 722.15 252.861L718.076 255.909C716.78 253.291 715.533 250.648 714.338 247.982C731.584 238.989 748.504 229.309 765.479 219.816L837.116 179.725L938.657 124.035Z"/>
	<path fill="#FEFEFE" d="M709.325 253.844C711.071 255.507 711.726 258.815 712.449 261.068C706.122 273.41 701.384 287.117 696.021 299.931L661.735 381.526C657.131 392.613 652.255 403.56 647.567 414.607C644.745 421.257 642.28 428.155 638.991 434.588C637.808 434.555 637.135 434.548 636.121 433.906C634.936 429.198 702.283 270.744 709.325 253.844Z"/>
	<path fill="#FEFEFE" d="M425.884 76.9885L426.192 77.4237C428.85 104.83 431.272 153.82 415.77 177.3C415.447 177.431 414.905 177.423 414.553 177.458C414.472 177.345 414.375 177.242 414.309 177.119C412.808 174.333 413.881 165.756 413.992 162.366C414.942 133.437 417.063 104.76 425.884 76.9885Z"/>
</svg>
