<?xml version="1.0" encoding="UTF-8" standalone="no"?>
<!-- Generator: Adobe Illustrator 28.3.0, SVG Export Plug-In . SVG Version: 6.00 Build 0)  -->

<svg
   version="1.1"
   id="Capa_1"
   x="0px"
   y="0px"
   viewBox="0 0 40 40"
   style="enable-background:new 0 0 40 40;"
   xml:space="preserve"
   sodipodi:docname="riding-style.svg"
   inkscape:version="1.3.2 (091e20e, 2023-11-25)"
   xmlns:inkscape="http://www.inkscape.org/namespaces/inkscape"
   xmlns:sodipodi="http://sodipodi.sourceforge.net/DTD/sodipodi-0.dtd"
   xmlns="http://www.w3.org/2000/svg"
   xmlns:svg="http://www.w3.org/2000/svg"><defs
   id="defs19" /><sodipodi:namedview
   id="namedview19"
   pagecolor="#ffffff"
   bordercolor="#000000"
   borderopacity="0.25"
   inkscape:showpageshadow="2"
   inkscape:pageopacity="0.0"
   inkscape:pagecheckerboard="0"
   inkscape:deskcolor="#d1d1d1"
   inkscape:zoom="13.438594"
   inkscape:cx="19.682119"
   inkscape:cy="27.383817"
   inkscape:window-width="1424"
   inkscape:window-height="773"
   inkscape:window-x="7"
   inkscape:window-y="25"
   inkscape:window-maximized="0"
   inkscape:current-layer="g19" />
<style
   type="text/css"
   id="style1">
	.st0{fill:#8C3030;}
	.st1{fill:#FFFFFF;}
	.st2{fill:none;stroke:#393939;stroke-width:0.8894;stroke-linecap:round;stroke-linejoin:round;stroke-miterlimit:10;}
	.st3{fill:none;stroke:#8C3030;stroke-width:1.092;stroke-linecap:round;stroke-linejoin:round;stroke-miterlimit:10;}
</style>
<g
   id="g19">
	<g
   id="g6">
		
		<g
   id="g5">
			<g
   id="g4">
				
				
				
			</g>
		</g>
	</g>
	<g
   id="g12">
		<path
   class="st2"
   d="M24.8,26"
   id="path6" />
		<path
   class="st2"
   d="M34.4,13.8c1.2-0.1,2-0.1,2.1-0.1c0.4,0,0.6,0.4,1.4,0.4c0.8,0,1.4-0.3,1.4-0.5c0-0.3,0.5-0.7-0.6-1.1    c-0.9-0.3-6.5-3-8.5-4c-1.4-0.8-3.1-1.2-4.8-1.2c-2.2,0-3.6,0.1-5,1"
   id="path7" />
		<path
   class="st2"
   d="M33.2,21c0,0-1.6-2.2-1.5-3.6c0.1-1.4,2.6-3.6,2.6-3.6"
   id="path8" />
		<path
   class="st2"
   d="M32.4,24.4c0,0-2.6,0.9-2.7,1.3c-0.1,0.4-0.3,1.9-0.3,2.2c0.1,0.3,0.6,0.5,0.6,0.5"
   id="path9" />
		<line
   class="st3"
   x1="23"
   y1="22.4"
   x2="24"
   y2="23.2"
   id="line9" />
		<path
   class="st2"
   d="M22.5,13.3c0.6,0,4.7-0.2,5.5-0.2c0.8,0,1.6,1.1,1.6,1.1L32,14c0,0,0-0.9,0.4-1.1c0.4-0.2,3.7-0.4,3.7-0.4"
   id="path10" />
		<path
   class="st2"
   d="M28.6,8.9c0,0,2.9,1.4,2.8,1.4s-9.3,1-9.3,1"
   id="path11" />
		<path
   class="st2"
   d="M 20.300521,24.300261 C 21.100521,25.000261 28.8,29.2 30,29.4 c 1.2,0.3 1,-0.5 1.5,-1.5 0.5,-0.9 2.2,-3.1 2.3,-4.3 0.1,-1.2 -0.2,-2.5 -0.5,-2.7 -0.3,-0.2 -1.4,0 -1.9,0.8 -0.5,0.8 -2.8,0.8 -3.5,0.6 -0.8,-0.2 -0.4,-0.7 -1.1,-1 -0.6,-0.3 -4,-2.6 -4.2,-3.4 -0.2,-0.8 0.5,-3 1.2,-3.2 0.7,-0.2 12.3,-1.1 12.7,-1 0.4,0 0.6,0.4 1.4,0.4 0.8,0 1.3,-0.3 1.4,-0.5 0,0 0.5,-0.7 -0.6,-1.1 -1.1,-0.4 -9.2,-4.4 -9.2,-4.4"
   id="path12"
   sodipodi:nodetypes="cccsssccsscscsc" />
	</g>
	<g
   id="g18">
		<path
   class="st2"
   d="m 18.541255,23.753786 c 0,0 -3.090347,2.783128 -5.526027,3.857366 C 9.6795475,29.082327 5.3201741,30.242203 4.8,30.3 3.9,30.4 3.5,29.7 3.4,29.5 3.3,29.2 3.2,29 3.2,29 3.2,29 2,27.8 1.8,27.2 1.6,26.6 1.3,26 1.2,25.7 1.1,25.4 0.9,24.6 0.9,24.6"
   id="path13"
   sodipodi:nodetypes="cssccssc" />
		<path
   class="st2"
   d="M1.2,14.8c0,0,0.1-1.2,0.4-2C1.9,12,4.3,7.6,9.4,7.1s9.3,1.7,10.1,2.1c0.7,0.4,0.4,1.7,0.4,1.7    s0.8,2.1,0.8,3.8c0,0.9-0.2,2.2-0.4,3.3L20,19.3"
   id="path14" />
		<path
   class="st2"
   d="M0.7,15.6c0,0,0.1-0.2,0.3-0.2s5.9,0.3,8.2,0.1s5.6-1.1,6.5-1.1s1.8,0.4,1.8,1.2c0,0.8-0.9,3.3-3.1,4.7    c-2.1,1.4-6.1,2.8-7.6,3.4c-1.6,0.6-3.6,1-4.5,1c-0.9,0-1.4-0.2-1.4-0.2S0.3,18.6,0.7,15.6z"
   id="path15" />
		<path
   class="st2"
   d="M4.5,12.9c0,0,1.4-1.5,2.7-2.1C8.5,10.1,9,10,9.1,10.1c0.1,0.1-1,1.7-1.7,2.1c-0.7,0.3-1.9,0.5-2.3,0.7    C4.7,13.1,4.5,12.9,4.5,12.9z"
   id="path16" />
		<path
   class="st2"
   d="M17.2,8.2c0,0,1.3,0.9,1.2,2s-0.6,1.8-0.2,1.9c0.4,0.2,1-0.1,1.3-0.3c0.3-0.2,0.4-1,0.4-1"
   id="path17" />
		<path
   class="st0"
   d="M15.5,15.5c-0.3,0-0.5,0.3-0.5,0.6c0,0.4,0.2,0.6,0.5,0.6s0.5-0.3,0.5-0.6C16,15.8,15.8,15.5,15.5,15.5z"
   id="path18" />
	</g>
</g>
</svg>
